<?xml version="1.0" encoding="utf-8"?>
<!-- Generator: Adobe Illustrator 26.0.1, SVG Export Plug-In . SVG Version: 6.00 Build 0)  -->
<svg version="1.1" id="Ebene_1" xmlns="http://www.w3.org/2000/svg" xmlns:xlink="http://www.w3.org/1999/xlink" x="0px" y="0px"
	 viewBox="0 0 1802.2 392" style="enable-background:new 0 0 1802.2 392;" xml:space="preserve">
<style type="text/css">
	.st0{fill-rule:evenodd;clip-rule:evenodd;}
</style>
<g id="Hintergrund">
</g>
<g id="Vordergrund">
	<path class="st0" d="M871.1,4.9V262c0,69.3,42.7,125.2,132.6,125.2h108.7l0.1-69.1h-102.1c-40.3,0-58.9-22.6-58.9-58.3V4.9H871.1
		L871.1,4.9z"/>
	<rect x="368.2" y="4.9" class="st0" width="80.5" height="382.3"/>
	<path class="st0" d="M173.8,4.9H5.9v382.3h80.5V266.5h87.4c90.6,0,144.1-59.6,144.1-130.3C318,65.7,264.4,4.9,173.8,4.9z
		 M169.6,199.7H86.4V71.8h83.2c40.7,0,67.3,27.4,67.3,64.3C236.7,173.1,210.2,199.7,169.6,199.7z"/>
	<polygon class="st0" points="705.8,196.1 830.8,4.9 741.3,4.9 660,134.2 578.9,4.9 488.8,4.9 614,196.1 488.8,387.2 578.4,387.2 
		660,258.4 740.8,387.2 830.8,387.2 	"/>
	<rect x="1152.7" y="4.9" class="st0" width="80.5" height="382.3"/>
	<path class="st0" d="M1481.6,4.9h-167.9v382.3h80.5V266.5h87.4c90.6,0,144.1-59.6,144.1-130.3C1625.7,65.7,1572.2,4.9,1481.6,4.9z
		 M1477.2,199.7H1394V71.8h83.2c40.7,0,67.3,27.4,67.3,64.3C1544.5,173.1,1517.9,199.7,1477.2,199.7z"/>
	<path d="M1745.3,54.3c0-2.6-0.7-4.5-2.1-6c-1.4-1.4-4-2-7.7-2h-7.5v16h6c4.1,0,7.1-0.9,8.8-2.4
		C1744.5,58.6,1745.3,56.6,1745.3,54.3 M1744.6,92.6l-5.4-17.3c-0.3-1.4-1-2.6-2.1-3.3c-1.1-0.7-2.3-1.1-3.4-1.1h-5.8v21.7h-10.5
		V37.6h19c6,0,10.8,1.3,14.3,3.7c3.5,2.6,5.3,6.7,5.3,12.3c0,2.1-0.4,4-1.1,5.5c-0.9,1.6-1.8,2.8-3,3.8c-1.3,1.1-2.4,2-3.7,2.6
		c-1.3,0.7-2.3,1.1-3.1,1.4c0.4,0.3,1.1,0.9,2,1.6c1,0.7,1.7,1.8,2.4,3.4l6.8,20.9h-11.6V92.6z M1784.4,64.8
		c0-7.1-1.3-13.6-3.8-19.6c-2.6-6-6.1-11.1-10.5-15.3s-9.7-7.7-15.6-10.1s-12.3-3.7-19.2-3.7s-13.2,1.3-19.2,3.7
		s-11.1,5.8-15.5,10.1s-7.9,9.4-10.4,15.3c-2.6,6-3.7,12.5-3.7,19.6c0,7.2,1.3,13.9,3.8,19.9c2.6,6,6.1,11.2,10.4,15.5
		c4.4,4.3,9.5,7.7,15.5,10.1c6,2.4,12.3,3.7,19.2,3.7s13.3-1.3,19.3-3.7c6-2.4,11.2-5.8,15.6-10.1s7.8-9.4,10.4-15.5
		C1783.1,78.7,1784.4,72.1,1784.4,64.8 M1796.3,65.2c0,8.8-1.6,17-4.8,24.3c-3.3,7.4-7.5,13.6-13.1,19c-5.5,5.3-11.9,9.4-19.4,12.2
		c-7.4,2.8-15.5,4.3-24,4.3c-8.4,0-16.3-1.4-23.8-4.4c-7.4-3-13.9-7.1-19.4-12.3c-5.5-5.3-9.8-11.6-12.9-19
		c-3.1-7.4-4.7-15.6-4.7-24.4s1.6-17,4.7-24.3c3.1-7.4,7.5-13.6,12.9-18.9c5.4-5.3,11.9-9.2,19.4-12.2c7.4-3,15.3-4.4,23.8-4.4
		s16.6,1.4,24,4.4c7.4,3,13.9,7.1,19.4,12.3c5.5,5.3,9.8,11.6,13.1,19C1794.7,48.1,1796.3,56.3,1796.3,65.2"/>
</g>
</svg>
